# Wavefront Obj file
# 
# verts: 8 uv-s: 24
mtllib BSGRoof.mtl

g BSGRoof

v -5.000000 -0.050000 2.300000
v 5.000000 -0.050000 2.300000
v -5.000000 0.050000 2.300000
v 5.000000 0.050000 2.300000
v -5.000000 0.050000 -2.300000
v 5.000000 0.050000 -2.300000
v -5.000000 -0.050000 -2.300000
v 5.000000 -0.050000 -2.300000
# 8 positions

vt 0.010000 0.166659
vt 0.852157 0.166659
vt 0.852157 0.175080
vt 0.010000 0.175080
vt 0.010000 0.602608
vt 0.852157 0.602608
vt 0.852157 0.990000
vt 0.010000 0.990000
vt 0.010000 0.185001
vt 0.852157 0.185001
vt 0.852157 0.193422
vt 0.010000 0.193422
vt 0.010000 0.204319
vt 0.852157 0.204319
vt 0.852157 0.591711
vt 0.010000 0.591711
vt 0.591711 0.157299
vt 0.204319 0.157299
vt 0.204319 0.148877
vt 0.591711 0.148877
vt 0.602607 0.148877
vt 0.990000 0.148877
vt 0.990000 0.157299
vt 0.602607 0.157299
# 24 texture coordinates

vn 0.000000 0.000000 1.000000
vn 0.000000 0.000000 1.000000
vn 0.000000 0.000000 1.000000
vn 0.000000 0.000000 1.000000
vn 0.000000 1.000000 0.000000
vn 0.000000 1.000000 0.000000
vn 0.000000 1.000000 0.000000
vn 0.000000 1.000000 0.000000
vn 0.000000 0.000000 -1.000000
vn 0.000000 0.000000 -1.000000
vn 0.000000 0.000000 -1.000000
vn 0.000000 0.000000 -1.000000
vn 0.000000 -1.000000 0.000000
vn 0.000000 -1.000000 0.000000
vn 0.000000 -1.000000 0.000000
vn 0.000000 -1.000000 0.000000
vn 1.000000 0.000000 0.000000
vn 1.000000 0.000000 0.000000
vn 1.000000 0.000000 0.000000
vn 1.000000 0.000000 0.000000
vn -1.000000 0.000000 0.000000
vn -1.000000 0.000000 0.000000
vn -1.000000 0.000000 0.000000
vn -1.000000 0.000000 0.000000
# 24 normals

usemtl default
s 1
f 1/1/1 2/2/2 4/3/3 3/4/4
s 2
f 3/5/5 4/6/6 6/7/7 5/8/8
s 3
f 5/9/9 6/10/10 8/11/11 7/12/12
s 4
f 7/13/13 8/14/14 2/15/15 1/16/16
s 5
f 2/17/17 8/18/18 6/19/19 4/20/20
s 6
f 7/21/21 1/22/22 3/23/23 5/24/24

# 6 faces
