# Wavefront Obj file
# 
# verts: 96 uv-s: 145
mtllib BSGAmmoBoxD.mtl

g BSGAmmoBoxD

v -1.991627 -0.468753 1.187506
v -1.968753 -0.491627 1.187506
v -1.937506 -0.500000 1.187506
v -1.937506 -0.491627 1.218753
v -1.937506 -0.468753 1.241627
v -1.937506 -0.437506 1.250000
v -1.968753 -0.437506 1.241627
v -1.991627 -0.437506 1.218753
v -2.000000 -0.437506 1.187506
v 1.968753 -0.491627 1.187506
v 1.991627 -0.468753 1.187506
v 2.000000 -0.437506 1.187506
v 1.991627 -0.437506 1.218753
v 1.968753 -0.437506 1.241627
v 1.937506 -0.437506 1.250000
v 1.937506 -0.468753 1.241627
v 1.937506 -0.491627 1.218753
v 1.937506 -0.500000 1.187506
v -1.968753 0.491627 1.187506
v -1.991627 0.468753 1.187506
v -2.000000 0.437506 1.187506
v -1.991627 0.437506 1.218753
v -1.968753 0.437506 1.241627
v -1.937506 0.437506 1.250000
v -1.937506 0.468753 1.241627
v -1.937506 0.491627 1.218753
v -1.937506 0.500000 1.187506
v 1.991627 0.468753 1.187506
v 1.968753 0.491627 1.187506
v 1.937506 0.500000 1.187506
v 1.937506 0.491627 1.218753
v 1.937506 0.468753 1.241627
v 1.937506 0.437506 1.250000
v 1.968753 0.437506 1.241627
v 1.991627 0.437506 1.218753
v 2.000000 0.437506 1.187506
v -1.968753 0.437506 -1.241627
v -1.991627 0.437506 -1.218753
v -2.000000 0.437506 -1.187506
v -1.991627 0.468753 -1.187506
v -1.968753 0.491627 -1.187506
v -1.937506 0.500000 -1.187506
v -1.937506 0.491627 -1.218753
v -1.937506 0.468753 -1.241627
v -1.937506 0.437506 -1.250000
v 1.991627 0.437506 -1.218753
v 1.968753 0.437506 -1.241627
v 1.937506 0.437506 -1.250000
v 1.937506 0.468753 -1.241627
v 1.937506 0.491627 -1.218753
v 1.937506 0.500000 -1.187506
v 1.968753 0.491627 -1.187506
v 1.991627 0.468753 -1.187506
v 2.000000 0.437506 -1.187506
v -1.968753 -0.491627 -1.187506
v -1.991627 -0.468753 -1.187506
v -2.000000 -0.437506 -1.187506
v -1.991627 -0.437506 -1.218753
v -1.968753 -0.437506 -1.241627
v -1.937506 -0.437506 -1.250000
v -1.937506 -0.468753 -1.241627
v -1.937506 -0.491627 -1.218753
v -1.937506 -0.500000 -1.187506
v 1.991627 -0.468753 -1.187506
v 1.968753 -0.491627 -1.187506
v 1.937506 -0.500000 -1.187506
v 1.937506 -0.491627 -1.218753
v 1.937506 -0.468753 -1.241627
v 1.937506 -0.437506 -1.250000
v 1.968753 -0.437506 -1.241627
v 1.991627 -0.437506 -1.218753
v 2.000000 -0.437506 -1.187506
v -1.986928 -0.464509 1.214509
v -1.964509 -0.486928 1.214509
v -1.964509 -0.464509 1.236928
v 1.964509 -0.486928 1.214509
v 1.986928 -0.464509 1.214509
v 1.964509 -0.464509 1.236928
v -1.964509 0.486928 1.214509
v -1.986928 0.464509 1.214509
v -1.964509 0.464509 1.236928
v 1.986928 0.464509 1.214509
v 1.964509 0.486928 1.214509
v 1.964509 0.464509 1.236928
v -1.964509 0.464509 -1.236928
v -1.986928 0.464509 -1.214509
v -1.964509 0.486928 -1.214509
v 1.986928 0.464509 -1.214509
v 1.964509 0.464509 -1.236928
v 1.964509 0.486928 -1.214509
v -1.964509 -0.486928 -1.214509
v -1.986928 -0.464509 -1.214509
v -1.964509 -0.464509 -1.236928
v 1.986928 -0.464509 -1.214509
v 1.964509 -0.486928 -1.214509
v 1.964509 -0.464509 -1.236928
# 96 positions

vt 0.013206 0.399259
vt 0.013206 0.394521
vt 0.373309 0.394521
vt 0.373309 0.399259
vt 0.013206 0.391053
vt 0.373309 0.391053
vt 0.751867 0.373309
vt 0.747129 0.373309
vt 0.747129 0.013206
vt 0.751867 0.013206
vt 0.009738 0.376777
vt 0.009738 0.381515
vt 0.597273 0.381515
vt 0.597273 0.376777
vt 0.005000 0.399259
vt 0.008468 0.399259
vt 0.008468 0.986794
vt 0.005000 0.986794
vt 0.013206 0.986794
vt 0.747129 0.378047
vt 0.614459 0.378047
vt 0.614459 0.373309
vt 0.747129 0.381515
vt 0.614459 0.381515
vt 0.005000 0.376777
vt 0.009738 0.244106
vt 0.005000 0.244106
vt 0.769107 0.013206
vt 0.764370 0.013206
vt 0.764370 0.373309
vt 0.769107 0.373309
vt 0.760901 0.013206
vt 0.760901 0.373309
vt 0.013206 0.991532
vt 0.373309 0.986794
vt 0.373309 0.991532
vt 0.602011 0.376777
vt 0.602011 0.244106
vt 0.597273 0.244106
vt 0.769107 0.005000
vt 0.769107 0.008468
vt 0.901778 0.008468
vt 0.901778 0.005000
vt 0.901778 0.013206
vt 0.609721 0.373309
vt 0.609721 0.013206
vt 0.614459 0.013206
vt 0.758928 0.995000
vt 0.758928 0.991532
vt 0.398825 0.991532
vt 0.398825 0.995000
vt 0.758928 0.986794
vt 0.398825 0.986794
vt 0.763666 0.986794
vt 0.763666 0.399259
vt 0.758928 0.399259
vt 0.767134 0.986794
vt 0.767134 0.399259
vt 0.009738 0.239369
vt 0.597273 0.239369
vt 0.758928 0.394521
vt 0.398825 0.394521
vt 0.398825 0.399259
vt 0.758928 0.391053
vt 0.398825 0.391053
vt 0.906516 0.013206
vt 0.901778 0.373309
vt 0.906516 0.373309
vt 0.614459 0.008468
vt 0.747129 0.008468
vt 0.614459 0.005000
vt 0.747129 0.005000
vt 0.602011 0.225597
vt 0.597273 0.225597
vt 0.597273 0.092926
vt 0.602011 0.092926
vt 0.597273 0.230335
vt 0.009738 0.230335
vt 0.009738 0.225597
vt 0.390619 0.986794
vt 0.394087 0.986794
vt 0.394087 0.399259
vt 0.390619 0.399259
vt 0.005000 0.225597
vt 0.005000 0.092926
vt 0.009738 0.092926
vt 0.901778 0.381515
vt 0.901778 0.378047
vt 0.769107 0.378047
vt 0.769107 0.381515
vt 0.378047 0.399259
vt 0.378047 0.986794
vt 0.381515 0.399259
vt 0.381515 0.986794
vt 0.597273 0.088188
vt 0.009738 0.088188
vt 0.751224 0.377403
vt 0.009112 0.391765
vt 0.009112 0.395165
vt 0.005712 0.395165
vt 0.005643 0.380871
vt 0.751224 0.380802
vt 0.009112 0.990888
vt 0.761614 0.009112
vt 0.765013 0.009112
vt 0.765013 0.005712
vt 0.601367 0.380871
vt 0.005712 0.990888
vt 0.763022 0.990888
vt 0.763022 0.994288
vt 0.610365 0.377403
vt 0.610365 0.380802
vt 0.005643 0.240012
vt 0.766422 0.990888
vt 0.905872 0.009112
vt 0.763022 0.391765
vt 0.763022 0.395165
vt 0.766422 0.395165
vt 0.601367 0.240012
vt 0.905872 0.005712
vt 0.601367 0.229691
vt 0.610365 0.005712
vt 0.610365 0.009112
vt 0.394731 0.994288
vt 0.394731 0.990888
vt 0.391332 0.990888
vt 0.905872 0.377403
vt 0.905872 0.380802
vt 0.005643 0.229691
vt 0.391332 0.395165
vt 0.394731 0.395165
vt 0.394731 0.391765
vt 0.377403 0.395165
vt 0.377403 0.391765
vt 0.751224 0.009112
vt 0.751224 0.005712
vt 0.601367 0.088832
vt 0.380802 0.395165
vt 0.765013 0.377403
vt 0.377403 0.994288
vt 0.373309 0.995000
vt 0.377403 0.990888
vt 0.380802 0.990888
vt 0.005643 0.088832
vt 0.765013 0.380802
# 145 texture coordinates

vn -0.002140 -0.999992 0.003476
vn -0.499976 -0.866035 0.002625
vn -0.499976 -0.866035 -0.002625
vn -0.002140 -0.999992 -0.003476
vn -0.707105 -0.707104 0.002613
vn -0.707105 -0.707104 -0.002613
vn -0.965985 -0.258585 0.002458
vn -0.999952 -0.009224 0.003465
vn -0.999952 -0.009224 -0.003465
vn -0.965985 -0.258585 -0.002458
vn -0.002134 -0.009230 0.999955
vn -0.001512 -0.258680 0.965962
vn 0.001512 -0.258680 0.965962
vn 0.002134 -0.009230 0.999955
vn -0.001609 -0.707105 0.707106
vn -0.001616 -0.866032 0.499986
vn 0.001616 -0.866032 0.499986
vn 0.001609 -0.707105 0.707106
vn 0.002140 -0.999992 0.003476
vn -0.966077 -0.006553 0.258171
vn -0.966077 0.006553 0.258171
vn -0.999952 0.009224 0.003465
vn -0.707090 -0.006960 0.707090
vn -0.707090 -0.006960 0.707090
vn -0.707090 0.006960 0.707090
vn -0.707090 0.006960 0.707090
vn -0.258172 -0.006553 0.966077
vn -0.002134 0.009230 0.999955
vn -0.258172 0.006553 0.966077
vn 0.999952 -0.009224 0.003465
vn 0.965985 -0.258585 0.002458
vn 0.965985 -0.258585 -0.002458
vn 0.999952 -0.009224 -0.003465
vn 0.707105 -0.707104 0.002613
vn 0.499976 -0.866035 0.002625
vn 0.499976 -0.866035 -0.002625
vn 0.707105 -0.707104 -0.002613
vn 0.002140 -0.999992 -0.003476
vn 0.258172 -0.006553 0.966077
vn 0.258172 0.006553 0.966077
vn 0.002134 0.009230 0.999955
vn 0.707090 -0.006960 0.707090
vn 0.707090 -0.006960 0.707090
vn 0.707090 0.006960 0.707090
vn 0.707090 0.006960 0.707090
vn 0.966077 -0.006553 0.258171
vn 0.999952 0.009224 0.003465
vn 0.966077 0.006553 0.258171
vn -0.965985 0.258585 0.002458
vn -0.965985 0.258585 -0.002458
vn -0.999952 0.009224 -0.003465
vn -0.707105 0.707104 0.002613
vn -0.499976 0.866035 0.002625
vn -0.499976 0.866035 -0.002625
vn -0.707105 0.707104 -0.002613
vn -0.002140 0.999992 0.003476
vn -0.002140 0.999992 -0.003476
vn -0.001616 0.866032 0.499986
vn 0.001616 0.866032 0.499986
vn 0.002140 0.999992 0.003476
vn -0.001609 0.707105 0.707106
vn 0.001609 0.707105 0.707106
vn -0.001512 0.258680 0.965962
vn 0.001512 0.258680 0.965962
vn 0.499976 0.866035 0.002625
vn 0.499976 0.866035 -0.002625
vn 0.002140 0.999992 -0.003476
vn 0.707105 0.707104 0.002613
vn 0.707105 0.707104 -0.002613
vn 0.965985 0.258585 0.002458
vn 0.999952 0.009224 -0.003465
vn 0.965985 0.258585 -0.002458
vn -0.966077 0.006553 -0.258171
vn -0.966077 -0.006553 -0.258171
vn -0.707090 0.006960 -0.707090
vn -0.707090 0.006960 -0.707090
vn -0.707090 -0.006960 -0.707090
vn -0.707090 -0.006960 -0.707090
vn -0.258172 0.006553 -0.966077
vn -0.002134 0.009230 -0.999955
vn -0.002134 -0.009230 -0.999955
vn -0.258172 -0.006553 -0.966077
vn -0.001512 0.258680 -0.965962
vn 0.001512 0.258680 -0.965962
vn 0.002134 0.009230 -0.999955
vn -0.001609 0.707105 -0.707106
vn -0.001616 0.866032 -0.499986
vn 0.001616 0.866032 -0.499986
vn 0.001609 0.707105 -0.707106
vn 0.258172 0.006553 -0.966077
vn 0.258172 -0.006553 -0.966077
vn 0.002134 -0.009230 -0.999955
vn 0.707090 0.006960 -0.707090
vn 0.707090 0.006960 -0.707090
vn 0.707090 -0.006960 -0.707090
vn 0.707090 -0.006960 -0.707090
vn 0.966077 0.006553 -0.258171
vn 0.966077 -0.006553 -0.258171
vn -0.001616 -0.866032 -0.499986
vn 0.001616 -0.866032 -0.499986
vn -0.001609 -0.707105 -0.707106
vn 0.001609 -0.707105 -0.707106
vn -0.001512 -0.258680 -0.965962
vn 0.001512 -0.258680 -0.965962
vn -0.946106 -0.229003 0.229002
vn -0.691998 -0.510460 0.510460
vn -0.510461 -0.691997 0.510460
vn -0.229003 -0.946106 0.229002
vn -0.510461 -0.510460 0.691998
vn -0.229003 -0.229003 0.946105
vn 0.229003 -0.946106 0.229002
vn 0.510461 -0.691997 0.510460
vn 0.691998 -0.510460 0.510460
vn 0.946106 -0.229003 0.229002
vn 0.510461 -0.510460 0.691998
vn 0.229003 -0.229003 0.946105
vn -0.229003 0.946106 0.229002
vn -0.510461 0.691997 0.510460
vn -0.691998 0.510460 0.510460
vn -0.946106 0.229003 0.229002
vn -0.510461 0.510460 0.691998
vn -0.229003 0.229003 0.946105
vn 0.946106 0.229003 0.229002
vn 0.691998 0.510460 0.510460
vn 0.510461 0.691997 0.510460
vn 0.229003 0.946106 0.229002
vn 0.510461 0.510460 0.691998
vn 0.229003 0.229003 0.946105
vn -0.229003 0.229003 -0.946105
vn -0.510461 0.510460 -0.691998
vn -0.691998 0.510460 -0.510460
vn -0.946106 0.229003 -0.229002
vn -0.510461 0.691997 -0.510460
vn -0.229003 0.946106 -0.229002
vn 0.946106 0.229003 -0.229002
vn 0.691998 0.510460 -0.510460
vn 0.510461 0.510460 -0.691998
vn 0.229003 0.229003 -0.946105
vn 0.510461 0.691997 -0.510460
vn 0.229003 0.946106 -0.229002
vn -0.229003 -0.946106 -0.229002
vn -0.510461 -0.691997 -0.510460
vn -0.691998 -0.510460 -0.510460
vn -0.946106 -0.229003 -0.229002
vn -0.510461 -0.510460 -0.691998
vn -0.229003 -0.229003 -0.946105
vn 0.946106 -0.229003 -0.229002
vn 0.691998 -0.510460 -0.510460
vn 0.510461 -0.691997 -0.510460
vn 0.229003 -0.946106 -0.229002
vn 0.510461 -0.510460 -0.691998
vn 0.229003 -0.229003 -0.946105
# 152 normals

usemtl default
s 1
f 3/1/1 2/2/2 55/3/3 63/4/4
f 2/2/2 1/5/5 56/6/6 55/3/3
f 5/15/15 4/16/16 17/17/17 16/18/18
f 4/16/16 3/1/1 18/19/19 17/17/17
f 8/20/23 7/23/24 23/24/25 22/21/26
f 11/29/34 10/32/35 65/33/36 64/30/37
f 10/34/35 18/19/19 66/35/38 65/36/36
f 14/40/42 13/41/43 35/42/44 34/43/45
f 20/48/52 19/49/53 41/50/54 40/51/55
f 19/49/53 27/52/56 42/53/57 41/50/54
f 27/52/56 26/54/58 31/55/59 30/56/60
f 26/54/58 25/57/61 32/58/62 31/55/59
f 30/56/60 29/61/65 52/62/66 51/63/67
f 29/61/65 28/64/68 53/65/69 52/62/66
f 38/69/75 37/71/76 59/72/77 58/70/78
f 44/80/86 43/81/87 50/82/88 49/83/89
f 43/81/87 42/53/57 51/63/67 50/82/88
f 47/87/93 46/88/94 71/89/95 70/90/96
f 63/4/4 62/91/99 67/92/100 66/35/38
f 62/91/99 61/93/101 68/94/102 67/92/100
f 27/52/56 30/56/60 51/63/67 42/53/57
f 63/4/4 66/35/38 18/19/19 3/1/1
f 73/98/106 1/5/5 2/2/2 74/99/107
f 2/2/2 3/1/1 4/16/16 74/99/108
f 74/99/107 4/16/16 5/15/15 75/100/109
f 75/102/109 7/23/24 8/20/23 73/97/106
f 73/98/106 74/99/107 75/100/109
f 17/17/17 18/19/19 10/34/35 76/103/111
f 76/104/112 10/32/35 11/29/34 77/105/113
f 77/105/113 13/41/43 14/40/42 78/106/115
f 78/108/115 16/18/18 17/17/17 76/103/112
f 76/104/112 77/105/113 78/106/115
f 26/54/58 27/52/56 19/49/53 79/109/117
f 79/109/118 19/49/53 20/48/52 80/110/119
f 80/111/119 22/21/26 23/24/25 81/112/121
f 81/114/121 25/57/61 26/54/58 79/109/118
f 79/109/118 80/110/119 81/114/121
f 82/116/124 28/64/68 29/61/65 83/117/125
f 29/61/65 30/56/60 31/55/59 83/117/126
f 83/117/125 31/55/59 32/58/62 84/118/127
f 84/120/127 34/43/45 35/42/44 82/115/124
f 82/116/124 83/117/125 84/118/127
f 85/122/130 37/71/76 38/69/75 86/123/131
f 86/124/131 40/51/55 41/50/54 87/125/133
f 41/50/54 42/53/57 43/81/87 87/125/134
f 87/125/133 43/81/87 44/80/86 85/126/130
f 85/126/130 86/124/131 87/125/133
f 88/127/136 46/88/94 47/87/93 89/128/137
f 89/130/137 49/83/89 50/82/88 90/131/139
f 50/82/88 51/63/67 52/62/66 90/131/140
f 90/131/139 52/62/66 53/65/69 88/132/136
f 88/132/136 89/130/137 90/131/139
f 62/91/99 63/4/4 55/3/3 91/133/141
f 91/133/142 55/3/3 56/6/6 92/134/143
f 92/135/143 58/70/78 59/72/77 93/136/145
f 93/138/145 61/93/101 62/91/99 91/133/142
f 91/133/142 92/134/143 93/138/145
f 94/140/148 64/141/37 65/36/36 95/142/149
f 65/36/36 66/35/38 67/92/100 95/142/150
f 95/142/149 67/92/100 68/94/102 96/143/151
f 96/145/151 70/90/96 71/89/95 94/139/148
f 94/140/148 95/142/149 96/143/151
s 2
f 1/7/7 9/8/8 57/9/9 56/10/10
f 9/8/8 8/20/20 22/21/21 21/22/22
f 21/22/22 20/45/49 40/46/50 39/47/51
f 39/47/51 38/69/73 58/70/74 57/9/9
f 57/9/9 9/8/8 21/22/22 39/47/51
f 8/20/20 9/8/8 1/7/7 73/97/105
f 20/45/49 21/22/22 22/21/21 80/111/120
f 38/69/73 39/47/51 40/46/50 86/123/132
f 56/10/10 57/9/9 58/70/74 92/135/144
s 3
f 6/11/11 5/12/12 16/13/13 15/14/14
f 7/25/27 6/11/11 24/26/28 23/27/29
f 15/14/14 14/37/39 34/38/40 33/39/41
f 25/59/63 24/26/28 33/39/41 32/60/64
f 6/11/11 15/14/14 33/39/41 24/26/28
f 5/12/12 6/11/11 7/25/27 75/101/110
f 14/37/39 15/14/14 16/13/13 78/107/116
f 23/27/29 24/26/28 25/59/63 81/113/122
f 32/60/64 33/39/41 34/38/40 84/119/128
s 4
f 12/28/30 11/29/31 64/30/32 72/31/33
f 13/41/46 12/28/30 36/44/47 35/42/48
f 28/66/70 36/44/47 54/67/71 53/68/72
f 46/88/97 54/67/71 72/31/33 71/89/98
f 12/28/30 72/31/33 54/67/71 36/44/47
f 11/29/31 12/28/30 13/41/46 77/105/114
f 35/42/48 36/44/47 28/66/70 82/115/123
f 53/68/72 54/67/71 46/88/97 88/127/135
f 71/89/98 72/31/33 64/30/32 94/139/147
s 5
f 37/73/79 45/74/80 60/75/81 59/76/82
f 45/74/80 44/77/83 49/78/84 48/79/85
f 48/79/85 47/84/90 70/85/91 69/86/92
f 61/95/103 60/75/81 69/86/92 68/96/104
f 45/74/80 48/79/85 69/86/92 60/75/81
f 44/77/83 45/74/80 37/73/79 85/121/129
f 47/84/90 48/79/85 49/78/84 89/129/138
f 59/76/82 60/75/81 61/95/103 93/137/146
f 68/96/104 69/86/92 70/85/91 96/144/152

# 98 faces
