# Wavefront Obj file
# 
# verts: 96 uv-s: 144
mtllib SGWallD.mtl

g SGWallD

v -0.095981 -1.860002 1.245003
v -0.085001 -1.870981 1.245003
v -0.070003 -1.875000 1.245003
v -0.070003 -1.870981 1.260001
v -0.070003 -1.860002 1.270981
v -0.070003 -1.845003 1.275000
v -0.085001 -1.845003 1.270981
v -0.095981 -1.845003 1.260001
v -0.100000 -1.845003 1.245003
v 0.085001 -1.870981 1.245003
v 0.095981 -1.860002 1.245003
v 0.100000 -1.845003 1.245003
v 0.095981 -1.845003 1.260001
v 0.085001 -1.845003 1.270981
v 0.070003 -1.845003 1.275000
v 0.070003 -1.860002 1.270981
v 0.070003 -1.870981 1.260001
v 0.070003 -1.875000 1.245003
v -0.085001 1.870981 1.245003
v -0.095981 1.860002 1.245003
v -0.100000 1.845003 1.245003
v -0.095981 1.845003 1.260001
v -0.085001 1.845003 1.270981
v -0.070003 1.845003 1.275000
v -0.070003 1.860002 1.270981
v -0.070003 1.870981 1.260001
v -0.070003 1.875000 1.245003
v 0.095981 1.860002 1.245003
v 0.085001 1.870981 1.245003
v 0.070003 1.875000 1.245003
v 0.070003 1.870981 1.260001
v 0.070003 1.860002 1.270981
v 0.070003 1.845003 1.275000
v 0.085001 1.845003 1.270981
v 0.095981 1.845003 1.260001
v 0.100000 1.845003 1.245003
v -0.085001 1.845003 -1.270981
v -0.095981 1.845003 -1.260001
v -0.100000 1.845003 -1.245003
v -0.095981 1.860002 -1.245003
v -0.085001 1.870981 -1.245003
v -0.070003 1.875000 -1.245003
v -0.070003 1.870981 -1.260001
v -0.070003 1.860002 -1.270981
v -0.070003 1.845003 -1.275000
v 0.095981 1.845003 -1.260001
v 0.085001 1.845003 -1.270981
v 0.070003 1.845003 -1.275000
v 0.070003 1.860002 -1.270981
v 0.070003 1.870981 -1.260001
v 0.070003 1.875000 -1.245003
v 0.085001 1.870981 -1.245003
v 0.095981 1.860002 -1.245003
v 0.100000 1.845003 -1.245003
v -0.085001 -1.870981 -1.245003
v -0.095981 -1.860002 -1.245003
v -0.100000 -1.845003 -1.245003
v -0.095981 -1.845003 -1.260001
v -0.085001 -1.845003 -1.270981
v -0.070003 -1.845003 -1.275000
v -0.070003 -1.860002 -1.270981
v -0.070003 -1.870981 -1.260001
v -0.070003 -1.875000 -1.245003
v 0.095981 -1.860002 -1.245003
v 0.085001 -1.870981 -1.245003
v 0.070003 -1.875000 -1.245003
v 0.070003 -1.870981 -1.260001
v 0.070003 -1.860002 -1.270981
v 0.070003 -1.845003 -1.275000
v 0.085001 -1.845003 -1.270981
v 0.095981 -1.845003 -1.260001
v 0.100000 -1.845003 -1.245003
v -0.093725 -1.857965 1.257964
v -0.082964 -1.868726 1.257964
v -0.082964 -1.857965 1.268725
v 0.082964 -1.868726 1.257964
v 0.093725 -1.857965 1.257964
v 0.082964 -1.857965 1.268725
v -0.082964 1.868726 1.257964
v -0.093725 1.857965 1.257964
v -0.082964 1.857965 1.268725
v 0.093725 1.857965 1.257964
v 0.082964 1.868726 1.257964
v 0.082964 1.857965 1.268725
v -0.082964 1.857965 -1.268725
v -0.093725 1.857965 -1.257964
v -0.082964 1.868726 -1.257964
v 0.093725 1.857965 -1.257964
v 0.082964 1.857965 -1.268725
v 0.082964 1.868726 -1.257964
v -0.082964 -1.868726 -1.257964
v -0.093725 -1.857965 -1.257964
v -0.082964 -1.857965 -1.268725
v 0.093725 -1.857965 -1.257964
v 0.082964 -1.868726 -1.257964
v 0.082964 -1.857965 -1.268725
# 96 positions

vt 0.600408 0.340676
vt 0.600408 0.338323
vt 0.990926 0.338323
vt 0.990926 0.340676
vt 0.600408 0.336601
vt 0.990926 0.336601
vt 0.588423 0.990926
vt 0.586070 0.990926
vt 0.586070 0.600408
vt 0.588423 0.600408
vt 0.598686 0.992648
vt 0.598686 0.995000
vt 0.620644 0.995000
vt 0.620644 0.992648
vt 0.596334 0.340676
vt 0.598056 0.340676
vt 0.598056 0.362633
vt 0.596334 0.362633
vt 0.600408 0.362633
vt 0.586070 0.993278
vt 0.007352 0.993278
vt 0.007352 0.990926
vt 0.586070 0.995000
vt 0.007352 0.995000
vt 0.596334 0.992648
vt 0.598686 0.413930
vt 0.596334 0.413930
vt 0.007352 0.193866
vt 0.005000 0.193866
vt 0.005000 0.584384
vt 0.007352 0.584384
vt 0.600408 0.366708
vt 0.600408 0.364985
vt 0.990926 0.364985
vt 0.990926 0.366708
vt 0.990926 0.362633
vt 0.622996 0.992648
vt 0.622996 0.413930
vt 0.620644 0.413930
vt 0.007352 0.189792
vt 0.007352 0.191514
vt 0.586070 0.191514
vt 0.586070 0.189792
vt 0.586070 0.193866
vt 0.005000 0.990926
vt 0.005000 0.600408
vt 0.007352 0.600408
vt 0.990926 0.403666
vt 0.990926 0.401944
vt 0.600408 0.401944
vt 0.600408 0.403666
vt 0.990926 0.399592
vt 0.600408 0.399592
vt 0.993278 0.399592
vt 0.993278 0.377634
vt 0.990926 0.377634
vt 0.995000 0.399592
vt 0.995000 0.377634
vt 0.598686 0.411577
vt 0.620644 0.411577
vt 0.990926 0.375282
vt 0.600408 0.375282
vt 0.600408 0.377634
vt 0.990926 0.373560
vt 0.600408 0.373560
vt 0.588423 0.193866
vt 0.586070 0.584384
vt 0.588423 0.584384
vt 0.007352 0.598056
vt 0.586070 0.598056
vt 0.007352 0.596334
vt 0.586070 0.596334
vt 0.656259 0.992648
vt 0.653906 0.992648
vt 0.653906 0.413930
vt 0.656259 0.413930
vt 0.653906 0.995000
vt 0.631949 0.995000
vt 0.631949 0.992648
vt 0.596334 0.399592
vt 0.598056 0.399592
vt 0.598056 0.377634
vt 0.596334 0.377634
vt 0.629597 0.992648
vt 0.629597 0.413930
vt 0.631949 0.413930
vt 0.586070 0.588458
vt 0.586070 0.586736
vt 0.007352 0.586736
vt 0.007352 0.588458
vt 0.993278 0.340676
vt 0.993278 0.362633
vt 0.995000 0.340676
vt 0.995000 0.362633
vt 0.653906 0.411577
vt 0.631949 0.411577
vt 0.588103 0.992958
vt 0.598376 0.336955
vt 0.598376 0.338643
vt 0.596688 0.338643
vt 0.596654 0.994681
vt 0.588103 0.994646
vt 0.598376 0.364666
vt 0.598376 0.366354
vt 0.005319 0.191833
vt 0.005319 0.190146
vt 0.622677 0.994681
vt 0.596688 0.364666
vt 0.992958 0.401624
vt 0.992958 0.403312
vt 0.005319 0.992958
vt 0.005319 0.994646
vt 0.596654 0.411897
vt 0.994646 0.401624
vt 0.588103 0.191833
vt 0.992958 0.373914
vt 0.992958 0.375601
vt 0.994646 0.375601
vt 0.622677 0.411897
vt 0.588103 0.190146
vt 0.655939 0.994681
vt 0.005319 0.596688
vt 0.005319 0.598376
vt 0.598376 0.403312
vt 0.598376 0.401624
vt 0.596688 0.401624
vt 0.588103 0.586416
vt 0.588103 0.588104
vt 0.629916 0.994681
vt 0.596688 0.375601
vt 0.598376 0.375601
vt 0.598376 0.373914
vt 0.992958 0.338643
vt 0.992958 0.336955
vt 0.588103 0.598376
vt 0.588103 0.596688
vt 0.655939 0.411897
vt 0.994646 0.338643
vt 0.005319 0.586416
vt 0.992958 0.366354
vt 0.992958 0.364666
vt 0.994646 0.364666
vt 0.629916 0.411897
vt 0.005319 0.588104
# 144 texture coordinates

vn -0.025900 -0.999663 0.001584
vn -0.258718 -0.965952 0.001131
vn -0.258718 -0.965952 -0.001131
vn -0.025900 -0.999663 -0.001584
vn -0.707080 -0.707133 0.001204
vn -0.707080 -0.707133 0.001204
vn -0.707080 -0.707133 -0.001204
vn -0.707080 -0.707133 -0.001204
vn -0.965955 -0.258707 0.001132
vn -0.999998 -0.001084 0.001604
vn -0.999998 -0.001084 -0.001604
vn -0.965955 -0.258707 -0.001132
vn -0.025907 -0.001071 0.999664
vn -0.018620 -0.256918 0.966254
vn 0.018620 -0.256918 0.966254
vn 0.025907 -0.001071 0.999664
vn -0.019704 -0.706995 0.706944
vn -0.019843 -0.865973 0.499698
vn 0.019843 -0.865973 0.499698
vn 0.019704 -0.706995 0.706944
vn 0.025900 -0.999663 0.001584
vn -0.866021 -0.000817 0.500007
vn -0.866021 0.000817 0.500007
vn -0.999998 0.001084 0.001604
vn -0.707107 -0.000814 0.707106
vn -0.707107 0.000814 0.707106
vn -0.258762 -0.000765 0.965941
vn -0.025907 0.001071 0.999664
vn -0.258762 0.000765 0.965941
vn 0.999998 -0.001084 0.001604
vn 0.965955 -0.258707 0.001132
vn 0.965955 -0.258707 -0.001132
vn 0.999998 -0.001084 -0.001604
vn 0.707080 -0.707133 0.001204
vn 0.707080 -0.707133 0.001204
vn 0.707080 -0.707133 -0.001204
vn 0.707080 -0.707133 -0.001204
vn 0.258718 -0.965952 0.001131
vn 0.025900 -0.999663 -0.001584
vn 0.258718 -0.965952 -0.001131
vn 0.258762 -0.000765 0.965941
vn 0.258762 0.000765 0.965941
vn 0.025907 0.001071 0.999664
vn 0.707107 -0.000814 0.707106
vn 0.866021 -0.000817 0.500007
vn 0.866021 0.000817 0.500007
vn 0.707107 0.000814 0.707106
vn 0.999998 0.001084 0.001604
vn -0.965955 0.258707 0.001132
vn -0.965955 0.258707 -0.001132
vn -0.999998 0.001084 -0.001604
vn -0.707080 0.707133 0.001204
vn -0.707080 0.707133 0.001204
vn -0.707080 0.707133 -0.001204
vn -0.707080 0.707133 -0.001204
vn -0.258718 0.965952 0.001131
vn -0.025900 0.999663 0.001584
vn -0.025900 0.999663 -0.001584
vn -0.258718 0.965952 -0.001131
vn -0.019843 0.865973 0.499698
vn 0.019843 0.865973 0.499698
vn 0.025900 0.999663 0.001584
vn -0.019704 0.706995 0.706944
vn 0.019704 0.706995 0.706944
vn -0.018620 0.256918 0.966254
vn 0.018620 0.256918 0.966254
vn 0.258718 0.965952 0.001131
vn 0.258718 0.965952 -0.001131
vn 0.025900 0.999663 -0.001584
vn 0.707080 0.707133 0.001204
vn 0.707080 0.707133 0.001204
vn 0.707080 0.707133 -0.001204
vn 0.707080 0.707133 -0.001204
vn 0.965955 0.258707 0.001132
vn 0.999998 0.001084 -0.001604
vn 0.965955 0.258707 -0.001132
vn -0.866021 0.000817 -0.500007
vn -0.866021 -0.000817 -0.500007
vn -0.707107 0.000814 -0.707106
vn -0.707107 -0.000814 -0.707106
vn -0.258762 0.000765 -0.965941
vn -0.025907 0.001071 -0.999664
vn -0.025907 -0.001071 -0.999664
vn -0.258762 -0.000765 -0.965941
vn -0.018620 0.256918 -0.966254
vn 0.018620 0.256918 -0.966254
vn 0.025907 0.001071 -0.999664
vn -0.019704 0.706995 -0.706944
vn -0.019843 0.865973 -0.499698
vn 0.019843 0.865973 -0.499698
vn 0.019704 0.706995 -0.706944
vn 0.258762 0.000765 -0.965941
vn 0.258762 -0.000765 -0.965941
vn 0.025907 -0.001071 -0.999664
vn 0.707107 0.000814 -0.707106
vn 0.866021 0.000817 -0.500007
vn 0.866021 -0.000817 -0.500007
vn 0.707107 -0.000814 -0.707106
vn -0.019843 -0.865973 -0.499698
vn 0.019843 -0.865973 -0.499698
vn -0.019704 -0.706995 -0.706944
vn 0.019704 -0.706995 -0.706944
vn -0.018620 -0.256918 -0.966254
vn 0.018620 -0.256918 -0.966254
vn -0.946100 -0.229006 0.229023
vn -0.691994 -0.510459 0.510466
vn -0.510454 -0.692006 0.510455
vn -0.228990 -0.946112 0.228990
vn -0.510466 -0.510459 0.691994
vn -0.229021 -0.229005 0.946101
vn 0.228990 -0.946112 0.228990
vn 0.510454 -0.692006 0.510455
vn 0.691994 -0.510459 0.510466
vn 0.946100 -0.229006 0.229023
vn 0.510466 -0.510459 0.691994
vn 0.229021 -0.229005 0.946101
vn -0.228990 0.946112 0.228990
vn -0.510454 0.692006 0.510455
vn -0.691994 0.510459 0.510466
vn -0.946100 0.229006 0.229023
vn -0.510466 0.510459 0.691994
vn -0.229021 0.229005 0.946101
vn 0.946100 0.229006 0.229023
vn 0.691994 0.510459 0.510466
vn 0.510454 0.692006 0.510455
vn 0.228990 0.946112 0.228990
vn 0.510466 0.510459 0.691994
vn 0.229021 0.229005 0.946101
vn -0.229021 0.229005 -0.946101
vn -0.510466 0.510459 -0.691994
vn -0.691994 0.510459 -0.510466
vn -0.946100 0.229006 -0.229023
vn -0.510454 0.692006 -0.510455
vn -0.228990 0.946112 -0.228990
vn 0.946100 0.229006 -0.229023
vn 0.691994 0.510459 -0.510466
vn 0.510466 0.510459 -0.691994
vn 0.229021 0.229005 -0.946101
vn 0.510454 0.692006 -0.510455
vn 0.228990 0.946112 -0.228990
vn -0.228990 -0.946112 -0.228990
vn -0.510454 -0.692006 -0.510455
vn -0.691994 -0.510459 -0.510466
vn -0.946100 -0.229006 -0.229023
vn -0.510466 -0.510459 -0.691994
vn -0.229021 -0.229005 -0.946101
vn 0.946100 -0.229006 -0.229023
vn 0.691994 -0.510459 -0.510466
vn 0.510454 -0.692006 -0.510455
vn 0.228990 -0.946112 -0.228990
vn 0.510466 -0.510459 -0.691994
vn 0.229021 -0.229005 -0.946101
# 152 normals

usemtl default
s 1
f 3/1/1 2/2/2 55/3/3 63/4/4
f 2/2/5 1/5/6 56/6/7 55/3/8
f 1/7/9 9/8/10 57/9/11 56/10/12
f 5/15/17 4/16/18 17/17/19 16/18/20
f 4/16/18 3/1/1 18/19/21 17/17/19
f 9/8/10 8/20/22 22/21/23 21/22/24
f 8/20/22 7/23/25 23/24/26 22/21/23
f 12/28/30 11/29/31 64/30/32 72/31/33
f 11/32/34 10/33/35 65/34/36 64/35/37
f 10/33/38 18/19/21 66/36/39 65/34/40
f 14/40/44 13/41/45 35/42/46 34/43/47
f 13/41/45 12/28/30 36/44/48 35/42/46
f 21/22/24 20/45/49 40/46/50 39/47/51
f 20/48/52 19/49/53 41/50/54 40/51/55
f 19/49/56 27/52/57 42/53/58 41/50/59
f 27/52/57 26/54/60 31/55/61 30/56/62
f 26/54/60 25/57/63 32/58/64 31/55/61
f 30/56/62 29/61/67 52/62/68 51/63/69
f 29/61/70 28/64/71 53/65/72 52/62/73
f 28/66/74 36/44/48 54/67/75 53/68/76
f 39/47/51 38/69/77 58/70/78 57/9/11
f 38/69/77 37/71/79 59/72/80 58/70/78
f 44/80/88 43/81/89 50/82/90 49/83/91
f 43/81/89 42/53/58 51/63/69 50/82/90
f 47/87/95 46/88/96 71/89/97 70/90/98
f 46/88/96 54/67/75 72/31/33 71/89/97
f 63/4/4 62/91/99 67/92/100 66/36/39
f 62/91/99 61/93/101 68/94/102 67/92/100
f 27/52/57 30/56/62 51/63/69 42/53/58
f 63/4/4 66/36/39 18/19/21 3/1/1
f 12/28/30 72/31/33 54/67/75 36/44/48
f 57/9/11 9/8/10 21/22/24 39/47/51
f 8/20/22 9/8/10 1/7/9 73/97/105
f 73/98/106 1/5/6 2/2/5 74/99/107
f 2/2/2 3/1/1 4/16/18 74/99/108
f 74/99/107 4/16/18 5/15/17 75/100/109
f 75/102/109 7/23/25 8/20/22 73/97/106
f 73/98/106 74/99/107 75/100/109
f 17/17/19 18/19/21 10/33/38 76/103/111
f 76/103/112 10/33/35 11/32/34 77/104/113
f 11/29/31 12/28/30 13/41/45 77/105/114
f 77/105/113 13/41/45 14/40/44 78/106/115
f 78/108/115 16/18/20 17/17/19 76/103/112
f 76/103/112 77/104/113 78/108/115
f 26/54/60 27/52/57 19/49/56 79/109/117
f 79/109/118 19/49/53 20/48/52 80/110/119
f 20/45/49 21/22/24 22/21/23 80/111/120
f 80/111/119 22/21/23 23/24/26 81/112/121
f 81/114/121 25/57/63 26/54/60 79/109/118
f 79/109/118 80/110/119 81/114/121
f 35/42/46 36/44/48 28/66/74 82/115/123
f 82/116/124 28/64/71 29/61/70 83/117/125
f 29/61/67 30/56/62 31/55/61 83/117/126
f 83/117/125 31/55/61 32/58/64 84/118/127
f 84/120/127 34/43/47 35/42/46 82/115/124
f 82/116/124 83/117/125 84/118/127
f 85/122/130 37/71/79 38/69/77 86/123/131
f 38/69/77 39/47/51 40/46/50 86/123/132
f 86/124/131 40/51/55 41/50/54 87/125/133
f 41/50/59 42/53/58 43/81/89 87/125/134
f 87/125/133 43/81/89 44/80/88 85/126/130
f 85/126/130 86/124/131 87/125/133
f 53/68/76 54/67/75 46/88/96 88/127/135
f 88/127/136 46/88/96 47/87/95 89/128/137
f 89/130/137 49/83/91 50/82/90 90/131/139
f 50/82/90 51/63/69 52/62/68 90/131/140
f 90/131/139 52/62/73 53/65/72 88/132/136
f 88/132/136 89/130/137 90/131/139
f 62/91/99 63/4/4 55/3/3 91/133/141
f 91/133/142 55/3/8 56/6/7 92/134/143
f 56/10/12 57/9/11 58/70/78 92/135/144
f 92/135/143 58/70/78 59/72/80 93/136/145
f 93/138/145 61/93/101 62/91/99 91/133/142
f 91/133/142 92/134/143 93/138/145
f 71/89/97 72/31/33 64/30/32 94/139/147
f 94/140/148 64/35/37 65/34/36 95/141/149
f 65/34/40 66/36/39 67/92/100 95/141/150
f 95/141/149 67/92/100 68/94/102 96/142/151
f 96/144/151 70/90/98 71/89/97 94/139/148
f 94/140/148 95/141/149 96/142/151
s 2
f 6/11/13 5/12/14 16/13/15 15/14/16
f 7/25/27 6/11/13 24/26/28 23/27/29
f 15/14/16 14/37/41 34/38/42 33/39/43
f 25/59/65 24/26/28 33/39/43 32/60/66
f 6/11/13 15/14/16 33/39/43 24/26/28
f 5/12/14 6/11/13 7/25/27 75/101/110
f 14/37/41 15/14/16 16/13/15 78/107/116
f 23/27/29 24/26/28 25/59/65 81/113/122
f 32/60/66 33/39/43 34/38/42 84/119/128
s 3
f 37/73/81 45/74/82 60/75/83 59/76/84
f 45/74/82 44/77/85 49/78/86 48/79/87
f 48/79/87 47/84/92 70/85/93 69/86/94
f 61/95/103 60/75/83 69/86/94 68/96/104
f 45/74/82 48/79/87 69/86/94 60/75/83
f 44/77/85 45/74/82 37/73/81 85/121/129
f 47/84/92 48/79/87 49/78/86 89/129/138
f 59/76/84 60/75/83 61/95/103 93/137/146
f 68/96/104 69/86/94 70/85/93 96/143/152

# 98 faces
