# Wavefront Obj file
# 
# verts: 32 uv-s: 72
mtllib BSGSecurityWall.mtl

g BSGSecurityWall

v 3.749999 1.035366 -0.187500
v -4.448432 1.035366 -0.187500
v -4.448432 -0.353554 -0.187500
v 3.750000 -0.353554 -0.187500
v 3.749999 1.035366 0.187500
v -4.448432 1.035366 0.187500
v -4.448432 -0.353554 0.187500
v 3.750000 -0.353554 0.187500
v 4.950000 1.875000 0.187500
v -4.950000 1.874999 0.187500
v -4.950000 -1.875000 0.187500
v 4.949999 -1.875000 0.187500
v 4.950000 1.875000 -0.187500
v -4.950000 1.874999 -0.187500
v -4.950000 -1.875000 -0.187500
v 4.949999 -1.875000 -0.187500
v 3.649999 0.935366 -0.187500
v -4.348433 0.935366 -0.187500
v 3.649999 0.935366 0.187500
v -4.348433 0.935366 0.187500
v -4.348433 -0.253554 -0.187500
v -4.348433 -0.253554 0.187500
v 3.650000 -0.253554 -0.187500
v 3.650000 -0.253554 0.187500
v 3.574999 0.860366 -0.075000
v -4.273433 0.860367 -0.075000
v 3.574999 0.860366 0.075000
v -4.273433 0.860367 0.075000
v -4.273433 -0.178554 -0.075000
v -4.273433 -0.178554 0.075000
v 3.575000 -0.178554 -0.075000
v 3.575000 -0.178554 0.075000
# 32 positions

vt 0.883467 0.982138
vt 0.883467 0.159353
vt 0.899191 0.159353
vt 0.899191 0.982138
vt 0.525635 0.800764
vt 0.525635 0.909819
vt 0.509889 0.909819
vt 0.509889 0.800764
vt 0.950410 0.159353
vt 0.950410 0.982138
vt 0.934685 0.982138
vt 0.934685 0.159353
vt 0.509890 0.774241
vt 0.509890 0.665187
vt 0.525634 0.665187
vt 0.525634 0.774241
vt 0.298096 0.940349
vt 0.298096 0.128789
vt 0.381212 0.010000
vt 0.381212 0.990000
vt 0.160608 0.940349
vt 0.010000 0.990000
vt 0.160608 0.128789
vt 0.010000 0.010000
vt 0.823467 0.990000
vt 0.823467 0.010002
vt 0.860588 0.010002
vt 0.860588 0.990000
vt 0.267059 0.546480
vt 0.267059 0.917692
vt 0.229937 0.917692
vt 0.229937 0.546480
vt 0.812383 0.010003
vt 0.812383 0.990000
vt 0.775262 0.990000
vt 0.775262 0.010003
vt 0.181732 0.917692
vt 0.181732 0.546480
vt 0.218853 0.546480
vt 0.218853 0.917692
vt 0.392631 0.990000
vt 0.392631 0.010001
vt 0.475746 0.128790
vt 0.475746 0.940350
vt 0.763843 0.990000
vt 0.613235 0.940350
vt 0.763843 0.010001
vt 0.613235 0.128789
vt 0.485645 0.138688
vt 0.485645 0.930452
vt 0.288198 0.930451
vt 0.288198 0.138687
vt 0.603337 0.930452
vt 0.170506 0.930451
vt 0.603337 0.138688
vt 0.170506 0.138687
vt 0.871673 0.990000
vt 0.871673 0.151490
vt 0.910985 0.151490
vt 0.910985 0.990000
vt 0.537444 0.792892
vt 0.537444 0.917692
vt 0.498080 0.917692
vt 0.498080 0.792892
vt 0.962204 0.151490
vt 0.962204 0.990000
vt 0.922891 0.990000
vt 0.922891 0.151490
vt 0.498080 0.782114
vt 0.498080 0.657314
vt 0.537444 0.657314
vt 0.537444 0.782114
# 72 texture coordinates

vn -0.000000 -1.000000 0.000000
vn -0.000000 -1.000000 0.000000
vn -0.000000 -1.000000 0.000000
vn -0.000000 -1.000000 0.000000
vn 1.000000 0.000000 0.000000
vn 1.000000 0.000000 0.000000
vn 1.000000 0.000000 0.000000
vn 1.000000 0.000000 0.000000
vn 0.000000 1.000000 0.000000
vn 0.000000 1.000000 0.000000
vn 0.000000 1.000000 0.000000
vn 0.000000 1.000000 0.000000
vn -1.000000 -0.000001 0.000000
vn -1.000000 -0.000001 0.000000
vn -1.000000 -0.000001 0.000000
vn -1.000000 -0.000001 0.000000
vn 0.000000 0.000000 1.000000
vn 0.000000 0.000000 1.000000
vn 0.000000 0.000000 1.000000
vn 0.000000 0.000000 1.000000
vn 0.000000 0.000000 1.000000
vn 0.000000 0.000000 1.000000
vn 0.000000 0.000000 1.000000
vn 0.000000 0.000000 1.000000
vn -0.000000 1.000000 0.000000
vn -0.000000 1.000000 0.000000
vn -0.000000 1.000000 0.000000
vn -0.000000 1.000000 0.000000
vn -1.000000 0.000000 0.000000
vn -1.000000 0.000000 0.000000
vn -1.000000 0.000000 0.000000
vn -1.000000 0.000000 0.000000
vn 0.000000 -1.000000 0.000000
vn 0.000000 -1.000000 0.000000
vn 0.000000 -1.000000 0.000000
vn 0.000000 -1.000000 0.000000
vn 1.000000 -0.000000 0.000000
vn 1.000000 -0.000000 0.000000
vn 1.000000 -0.000000 0.000000
vn 1.000000 -0.000000 0.000000
vn 0.000000 0.000000 -1.000000
vn 0.000000 0.000000 -1.000000
vn 0.000000 0.000000 -1.000000
vn 0.000000 0.000000 -1.000000
vn 0.000000 0.000000 -1.000000
vn 0.000000 0.000000 -1.000000
vn 0.000000 0.000000 -1.000000
vn 0.000000 0.000000 -1.000000
vn 0.000000 0.000000 -1.000000
vn 0.000000 0.000000 -1.000000
vn 0.000000 0.000000 1.000000
vn 0.000000 0.000000 1.000000
vn 0.000000 0.000000 -1.000000
vn 0.000000 0.000000 1.000000
vn 0.000000 0.000000 -1.000000
vn 0.000000 0.000000 1.000000
vn -0.000000 -0.832052 -0.554698
vn -0.000000 -0.832052 -0.554698
vn -0.000000 -0.832052 -0.554698
vn -0.000000 -0.832052 -0.554698
vn -0.000000 -0.832052 0.554698
vn -0.000000 -0.832052 0.554698
vn -0.000000 -0.832052 0.554698
vn -0.000000 -0.832052 0.554698
vn 0.832049 0.000000 -0.554702
vn 0.832049 0.000000 -0.554702
vn 0.832049 0.000000 -0.554702
vn 0.832049 0.000000 -0.554702
vn 0.832049 0.000000 0.554702
vn 0.832049 0.000000 0.554702
vn 0.832049 0.000000 0.554702
vn 0.832049 0.000000 0.554702
vn 0.000000 0.832050 -0.554700
vn 0.000000 0.832050 -0.554700
vn 0.000000 0.832050 -0.554700
vn 0.000000 0.832050 -0.554700
vn 0.000000 0.832050 0.554700
vn 0.000000 0.832050 0.554700
vn 0.000000 0.832050 0.554700
vn 0.000000 0.832050 0.554700
vn -0.832050 -0.000001 -0.554700
vn -0.832050 -0.000001 -0.554700
vn -0.832050 -0.000001 -0.554700
vn -0.832050 -0.000001 -0.554700
vn -0.832050 -0.000001 0.554700
vn -0.832050 -0.000001 0.554700
vn -0.832050 -0.000001 0.554700
vn -0.832050 -0.000001 0.554700
# 88 normals

usemtl default
s 1
f 26/1/1 25/2/2 27/3/3 28/4/4
s 2
f 29/5/5 26/6/6 28/7/7 30/8/8
s 3
f 31/9/9 29/10/10 30/11/11 32/12/12
s 4
f 25/13/13 31/14/14 32/15/15 27/16/16
s 5
f 6/17/17 5/18/18 9/19/19 10/20/20
f 7/21/21 6/17/17 10/20/20 11/22/22
f 8/23/23 7/21/21 11/22/22 12/24/24
f 5/18/18 8/23/23 12/24/24 9/19/19
f 5/18/18 6/17/17 20/51/51 19/52/52
f 6/17/17 7/21/21 22/54/54 20/51/51
f 7/21/21 8/23/23 24/56/56 22/54/54
f 8/23/23 5/18/18 19/52/52 24/56/56
s 6
f 10/25/25 9/26/26 13/27/27 14/28/28
s 7
f 11/29/29 10/30/30 14/31/31 15/32/32
s 8
f 12/33/33 11/34/34 15/35/35 16/36/36
s 9
f 9/37/37 12/38/38 16/39/39 13/40/40
s 10
f 14/41/41 13/42/42 1/43/43 2/44/44
f 15/45/45 14/41/41 2/44/44 3/46/46
f 16/47/47 15/45/45 3/46/46 4/48/48
f 13/42/42 16/47/47 4/48/48 1/43/43
f 2/44/44 1/43/43 17/49/49 18/50/50
f 3/46/46 2/44/44 18/50/50 21/53/53
f 4/48/48 3/46/46 21/53/53 23/55/55
f 1/43/43 4/48/48 23/55/55 17/49/49
s 11
f 18/57/57 17/58/58 25/2/59 26/1/60
s 12
f 19/59/61 20/60/62 28/4/63 27/3/64
s 13
f 21/61/65 18/62/66 26/6/67 29/5/68
s 14
f 20/63/69 22/64/70 30/8/71 28/7/72
s 15
f 23/65/73 21/66/74 29/10/75 31/9/76
s 16
f 22/67/77 24/68/78 32/12/79 30/11/80
s 17
f 17/69/81 23/70/82 31/14/83 25/13/84
s 18
f 24/71/85 19/72/86 27/16/87 32/15/88

# 32 faces
