# Wavefront Obj file
# 
# verts: 56 uv-s: 96
mtllib BSGFloorA.mtl

g BSGFloorA

v -0.568500 -0.047071 0.561430
v -0.561430 -0.050000 0.561430
v -0.561430 -0.047071 0.568500
v -0.561430 -0.040001 0.571429
v -0.568500 -0.040001 0.568500
v -0.571429 -0.040001 0.561430
v 0.568500 -0.047071 0.561430
v 0.571429 -0.040001 0.561430
v 0.568500 -0.040001 0.568500
v 0.561430 -0.040001 0.571429
v 0.561430 -0.047071 0.568500
v 0.561430 -0.050000 0.561430
v -0.568500 0.047071 0.561430
v -0.571429 0.040001 0.561430
v -0.568500 0.040001 0.568500
v -0.561430 0.040001 0.571429
v -0.561430 0.047071 0.568500
v -0.561430 0.050000 0.561430
v 0.568500 0.047071 0.561430
v 0.561430 0.050000 0.561430
v 0.561430 0.047071 0.568500
v 0.561430 0.040001 0.571429
v 0.568500 0.040001 0.568500
v 0.571429 0.040001 0.561430
v -0.568500 0.040001 -0.568500
v -0.571429 0.040001 -0.561430
v -0.568500 0.047071 -0.561430
v -0.561430 0.050000 -0.561430
v -0.561430 0.047071 -0.568500
v -0.561430 0.040001 -0.571429
v 0.568500 0.040001 -0.568500
v 0.561430 0.040001 -0.571429
v 0.561430 0.047071 -0.568500
v 0.561430 0.050000 -0.561430
v 0.568500 0.047071 -0.561430
v 0.571429 0.040001 -0.561430
v -0.568500 -0.047071 -0.561430
v -0.571429 -0.040001 -0.561430
v -0.568500 -0.040001 -0.568500
v -0.561430 -0.040001 -0.571429
v -0.561430 -0.047071 -0.568500
v -0.561430 -0.050000 -0.561430
v 0.568500 -0.047071 -0.561430
v 0.561430 -0.050000 -0.561430
v 0.561430 -0.047071 -0.568500
v 0.561430 -0.040001 -0.571429
v 0.568500 -0.040001 -0.568500
v 0.571429 -0.040001 -0.561430
v -0.567201 -0.045772 0.567201
v 0.567201 -0.045772 0.567201
v -0.567201 0.045772 0.567201
v 0.567201 0.045772 0.567201
v -0.567201 0.045772 -0.567201
v 0.567201 0.045772 -0.567201
v -0.567201 -0.045772 -0.567201
v 0.567201 -0.045772 -0.567201
# 56 positions

vt 0.008052 0.507225
vt 0.008052 0.504173
vt 0.492775 0.504173
vt 0.492775 0.507225
vt 0.093637 0.492775
vt 0.090585 0.492775
vt 0.090585 0.008052
vt 0.093637 0.008052
vt 0.507225 0.991948
vt 0.507225 0.995000
vt 0.991948 0.995000
vt 0.991948 0.991948
vt 0.005000 0.507225
vt 0.008052 0.991948
vt 0.005000 0.991948
vt 0.090585 0.495827
vt 0.056049 0.495827
vt 0.056049 0.492775
vt 0.504173 0.991948
vt 0.507225 0.957412
vt 0.504173 0.957412
vt 0.008052 0.008052
vt 0.005000 0.008052
vt 0.005000 0.492775
vt 0.008052 0.492775
vt 0.008052 0.995000
vt 0.492775 0.991948
vt 0.492775 0.995000
vt 0.995000 0.991948
vt 0.995000 0.957412
vt 0.991948 0.957412
vt 0.008052 0.005000
vt 0.042588 0.008052
vt 0.042588 0.005000
vt 0.052997 0.492775
vt 0.052997 0.008052
vt 0.056049 0.008052
vt 0.988108 0.499667
vt 0.988108 0.496615
vt 0.503385 0.496615
vt 0.503385 0.499667
vt 0.991160 0.496615
vt 0.991160 0.011892
vt 0.988108 0.011892
vt 0.507225 0.954360
vt 0.991948 0.954360
vt 0.988108 0.008840
vt 0.503385 0.008840
vt 0.503385 0.011892
vt 0.045640 0.008052
vt 0.042588 0.492775
vt 0.045640 0.492775
vt 0.056049 0.005000
vt 0.090585 0.005000
vt 0.995000 0.943951
vt 0.991948 0.943951
vt 0.991948 0.909415
vt 0.995000 0.909415
vt 0.991948 0.947003
vt 0.507225 0.947003
vt 0.507225 0.943951
vt 0.500333 0.496615
vt 0.500333 0.011892
vt 0.504173 0.943951
vt 0.504173 0.909415
vt 0.507225 0.909415
vt 0.042588 0.495827
vt 0.008052 0.495827
vt 0.495827 0.507225
vt 0.495827 0.991948
vt 0.991948 0.906363
vt 0.507225 0.906363
vt 0.093076 0.495266
vt 0.005561 0.504734
vt 0.504734 0.994439
vt 0.005561 0.994439
vt 0.005561 0.005561
vt 0.994439 0.994439
vt 0.990599 0.499106
vt 0.053558 0.495266
vt 0.504734 0.954921
vt 0.045079 0.005561
vt 0.990599 0.009401
vt 0.994439 0.954921
vt 0.994439 0.946442
vt 0.053558 0.005561
vt 0.500894 0.499106
vt 0.045079 0.495266
vt 0.504734 0.946442
vt 0.500894 0.009401
vt 0.495266 0.504734
vt 0.093076 0.005561
vt 0.994439 0.906924
vt 0.005561 0.495266
vt 0.495266 0.994439
vt 0.504734 0.906924
# 96 texture coordinates

vn -0.002589 -0.999993 0.002589
vn -0.382560 -0.923929 0.001606
vn -0.382560 -0.923929 -0.001606
vn -0.002589 -0.999993 -0.002589
vn -0.923928 -0.382564 0.001606
vn -0.999433 -0.033584 0.002554
vn -0.999433 -0.033584 -0.002554
vn -0.923928 -0.382564 -0.001606
vn -0.002554 -0.033584 0.999433
vn -0.001606 -0.382564 0.923928
vn 0.001606 -0.382564 0.923928
vn 0.002554 -0.033584 0.999433
vn -0.001606 -0.923929 0.382560
vn 0.002589 -0.999993 0.002589
vn 0.001606 -0.923929 0.382560
vn -0.924627 -0.021243 0.380282
vn -0.924627 0.021243 0.380282
vn -0.999433 0.033584 0.002554
vn -0.380282 -0.021243 0.924627
vn -0.002554 0.033584 0.999433
vn -0.380282 0.021243 0.924627
vn 0.999433 -0.033584 0.002554
vn 0.923928 -0.382564 0.001606
vn 0.923928 -0.382564 -0.001606
vn 0.999433 -0.033584 -0.002554
vn 0.382560 -0.923929 0.001606
vn 0.002589 -0.999993 -0.002589
vn 0.382560 -0.923929 -0.001606
vn 0.380282 -0.021243 0.924627
vn 0.380282 0.021243 0.924627
vn 0.002554 0.033584 0.999433
vn 0.924627 -0.021243 0.380282
vn 0.999433 0.033584 0.002554
vn 0.924627 0.021243 0.380282
vn -0.923928 0.382564 0.001606
vn -0.923928 0.382564 -0.001606
vn -0.999433 0.033584 -0.002554
vn -0.382560 0.923929 0.001606
vn -0.002589 0.999993 0.002589
vn -0.002589 0.999993 -0.002589
vn -0.382560 0.923929 -0.001606
vn -0.001606 0.923929 0.382560
vn 0.001606 0.923929 0.382560
vn 0.002589 0.999993 0.002589
vn -0.001606 0.382564 0.923928
vn 0.001606 0.382564 0.923928
vn 0.382560 0.923929 0.001606
vn 0.382560 0.923929 -0.001606
vn 0.002589 0.999993 -0.002589
vn 0.923928 0.382564 0.001606
vn 0.999433 0.033584 -0.002554
vn 0.923928 0.382564 -0.001606
vn -0.924627 0.021243 -0.380282
vn -0.924627 -0.021243 -0.380282
vn -0.380282 0.021243 -0.924627
vn -0.002554 0.033584 -0.999433
vn -0.002554 -0.033584 -0.999433
vn -0.380282 -0.021243 -0.924627
vn -0.001606 0.382564 -0.923928
vn 0.001606 0.382564 -0.923928
vn 0.002554 0.033584 -0.999433
vn -0.001606 0.923929 -0.382560
vn 0.001606 0.923929 -0.382560
vn 0.380282 0.021243 -0.924627
vn 0.380282 -0.021243 -0.924627
vn 0.002554 -0.033584 -0.999433
vn 0.924627 0.021243 -0.380282
vn 0.924627 -0.021243 -0.380282
vn -0.001606 -0.923929 -0.382560
vn 0.001606 -0.923929 -0.382560
vn -0.001606 -0.382564 -0.923928
vn 0.001606 -0.382564 -0.923928
vn -0.887923 -0.325264 0.325264
vn -0.325261 -0.887925 0.325261
vn -0.325264 -0.325264 0.887923
vn 0.325261 -0.887925 0.325261
vn 0.887923 -0.325264 0.325264
vn 0.325264 -0.325264 0.887923
vn -0.325261 0.887925 0.325261
vn -0.887923 0.325264 0.325264
vn -0.325264 0.325264 0.887923
vn 0.887923 0.325264 0.325264
vn 0.325261 0.887925 0.325261
vn 0.325264 0.325264 0.887923
vn -0.325264 0.325264 -0.887923
vn -0.887923 0.325264 -0.325264
vn -0.325261 0.887925 -0.325261
vn 0.887923 0.325264 -0.325264
vn 0.325264 0.325264 -0.887923
vn 0.325261 0.887925 -0.325261
vn -0.325261 -0.887925 -0.325261
vn -0.887923 -0.325264 -0.325264
vn -0.325264 -0.325264 -0.887923
vn 0.887923 -0.325264 -0.325264
vn 0.325261 -0.887925 -0.325261
vn 0.325264 -0.325264 -0.887923
# 96 normals

usemtl default
s 1
f 2/1/1 1/2/2 37/3/3 42/4/4
f 3/13/13 2/1/1 12/14/14 11/15/15
f 7/26/26 12/14/14 44/27/27 43/28/28
f 42/4/4 41/69/69 45/70/70 44/27/27
f 42/4/4 44/27/27 12/14/14 2/1/1
f 1/2/2 2/1/1 3/13/13 49/74/74
f 11/15/15 12/14/14 7/26/26 50/76/76
f 41/69/69 42/4/4 37/3/3 55/91/91
f 43/28/28 44/27/27 45/70/70 56/95/95
s 2
f 1/5/5 6/6/6 38/7/7 37/8/8
f 6/6/6 5/16/16 15/17/17 14/18/18
f 14/18/18 13/35/35 27/36/36 26/37/37
f 26/37/37 25/53/53 39/54/54 38/7/7
f 38/7/7 6/6/6 14/18/18 26/37/37
f 5/16/16 6/6/6 1/5/5 49/73/73
f 13/35/35 14/18/18 15/17/17 51/80/80
f 25/53/53 26/37/37 27/36/36 53/86/86
f 37/8/8 38/7/7 39/54/54 55/92/92
s 3
f 4/9/9 3/10/10 11/11/11 10/12/12
f 5/19/19 4/9/9 16/20/20 15/21/21
f 10/12/12 9/29/29 23/30/30 22/31/31
f 17/45/45 16/20/20 22/31/31 21/46/46
f 4/9/9 10/12/12 22/31/31 16/20/20
f 3/10/10 4/9/9 5/19/19 49/75/75
f 9/29/29 10/12/12 11/11/11 50/78/78
f 15/21/21 16/20/20 17/45/45 51/81/81
f 21/46/46 22/31/31 23/30/30 52/84/84
s 4
f 8/22/22 7/23/23 43/24/24 48/25/25
f 9/32/32 8/22/22 24/33/33 23/34/34
f 19/50/50 24/33/33 36/51/51 35/52/52
f 31/67/67 36/51/51 48/25/25 47/68/68
f 8/22/22 48/25/25 36/51/51 24/33/33
f 7/23/23 8/22/22 9/32/32 50/77/77
f 23/34/34 24/33/33 19/50/50 52/82/82
f 35/52/52 36/51/51 31/67/67 54/88/88
f 47/68/68 48/25/25 43/24/24 56/94/94
s 5
f 13/38/38 18/39/39 28/40/40 27/41/41
f 18/39/39 17/42/42 21/43/43 20/44/44
f 20/44/44 19/47/47 35/48/48 34/49/49
f 29/62/62 28/40/40 34/49/49 33/63/63
f 18/39/39 20/44/44 34/49/49 28/40/40
f 17/42/42 18/39/39 13/38/38 51/79/79
f 19/47/47 20/44/44 21/43/43 52/83/83
f 27/41/41 28/40/40 29/62/62 53/87/87
f 33/63/63 34/49/49 35/48/48 54/90/90
s 6
f 25/55/55 30/56/56 40/57/57 39/58/58
f 30/56/56 29/59/59 33/60/60 32/61/61
f 32/61/61 31/64/64 47/65/65 46/66/66
f 41/71/71 40/57/57 46/66/66 45/72/72
f 30/56/56 32/61/61 46/66/66 40/57/57
f 29/59/59 30/56/56 25/55/55 53/85/85
f 31/64/64 32/61/61 33/60/60 54/89/89
f 39/58/58 40/57/57 41/71/71 55/93/93
f 45/72/72 46/66/66 47/65/65 56/96/96

# 54 faces
